<?xml version="1.0" standalone="no"?>
<!DOCTYPE svg PUBLIC "-//W3C//DTD SVG 20010904//EN"
 "http://www.w3.org/TR/2001/REC-SVG-20010904/DTD/svg10.dtd">
<svg version="1.0" xmlns="http://www.w3.org/2000/svg"
 width="189.000000pt" height="134.000000pt" viewBox="0 0 189.000000 134.000000"
 preserveAspectRatio="xMidYMid meet">

<g transform="translate(0.000000,134.000000) scale(0.100000,-0.100000)"
fill="#000000" stroke="none">
<path d="M1003 1303 c-4 -10 -13 -22 -20 -26 -8 -5 -11 -16 -8 -28 5 -16 1
-19 -29 -19 -20 0 -36 -1 -36 -3 0 -1 4 -17 9 -35 10 -34 4 -39 -29 -22 -12 6
-27 6 -42 1 -13 -6 -17 -10 -10 -10 24 -2 12 -22 -17 -27 -22 -5 -28 -12 -28
-30 0 -13 5 -24 12 -24 7 0 15 -6 18 -14 3 -8 18 -16 33 -18 29 -3 47 -28 20
-28 -20 0 -66 -21 -66 -31 0 -4 11 -10 25 -13 14 -4 23 -11 20 -16 -3 -6 1
-10 10 -10 9 0 27 -8 42 -17 16 -10 41 -16 64 -14 22 1 39 -2 39 -8 0 -5 7
-17 16 -26 15 -14 17 -14 28 1 11 14 14 10 26 -32 8 -28 26 -61 43 -76 l29
-27 -16 -53 c-8 -29 -21 -61 -29 -72 -13 -17 -14 -17 -26 13 -8 17 -17 31 -21
31 -4 0 -40 -68 -80 -152 -40 -84 -84 -162 -96 -175 l-23 -23 57 1 c31 1 47 4
35 6 -25 5 -31 39 -13 74 9 16 22 19 80 19 67 0 70 -1 85 -30 20 -38 19 -57
-2 -63 -10 -3 23 -5 72 -5 50 0 82 2 72 5 -10 3 -39 48 -72 113 l-54 108 25
62 c13 33 27 81 31 106 5 36 11 48 30 55 14 5 30 22 36 38 6 17 19 32 29 34
10 3 18 12 18 21 0 11 9 16 28 16 16 0 32 8 40 20 8 13 23 20 41 20 30 0 50
28 36 49 -3 6 10 13 28 16 41 8 45 34 7 52 l-25 12 27 1 c39 0 57 10 51 26 -3
9 1 14 12 14 9 0 23 7 32 16 14 14 14 16 -3 29 -20 16 -54 27 -70 24 -23 -4
-64 2 -64 9 0 5 11 14 25 20 26 12 34 40 13 47 -7 2 -34 6 -60 10 -45 6 -47 7
-42 33 5 26 3 27 -33 27 -21 0 -51 -8 -66 -17 -33 -22 -34 -22 -40 1 -5 22
-63 34 -89 17 -13 -8 -23 -8 -38 2 -28 17 -29 16 -23 -23 3 -19 3 -35 0 -35
-3 0 -14 16 -23 35 -18 38 -41 46 -51 18z m-3 -122 c5 -11 10 -28 10 -38 -1
-16 -3 -15 -20 6 -21 25 -26 51 -10 51 5 0 14 -9 20 -19z m-91 -81 c11 0 51
-40 51 -51 0 -14 -82 33 -88 50 -3 10 0 12 12 8 10 -4 21 -7 25 -7z m122 -40
c14 -11 18 -19 11 -20 -19 0 -52 19 -52 30 0 16 16 12 41 -10z m-33 -66 c12
-4 22 -10 22 -15 0 -15 -75 -10 -96 6 -18 13 -17 14 16 15 19 0 45 -3 58 -6z
m313 -18 c-13 -16 -61 -28 -61 -15 0 11 32 28 54 29 15 0 16 -3 7 -14z m-173
-32 c12 -8 22 -19 22 -25 0 -6 -9 -8 -22 -4 -33 10 -68 34 -68 46 0 12 35 3
68 -17z m238 11 c-11 -8 -29 -15 -40 -15 -21 1 -21 1 -2 15 11 8 29 15 40 15
21 -1 21 -1 2 -15z m-310 -482 l14 -33 -60 0 -60 0 31 62 31 62 15 -29 c9 -16
22 -44 29 -62z"/>
<path d="M635 894 c-369 -66 -615 -234 -615 -419 0 -107 84 -209 236 -287 208
-107 457 -158 774 -158 233 0 422 27 605 86 88 29 215 91 215 105 0 5 -12 3
-27 -4 -87 -44 -266 -87 -441 -108 -140 -15 -537 -6 -652 15 -199 38 -332 83
-427 145 -326 212 -154 468 412 616 81 21 85 23 45 23 -25 0 -81 -6 -125 -14z"/>
<path d="M535 662 c-140 -67 -157 -243 -29 -318 55 -32 153 -42 229 -22 l50
13 3 50 c2 32 9 55 19 63 14 10 4 12 -58 11 -41 0 -68 -3 -61 -6 8 -3 12 -26
12 -64 l0 -59 -53 0 c-88 0 -127 47 -127 153 0 81 10 115 42 148 25 25 37 29
83 29 46 0 60 -5 89 -31 19 -16 38 -39 41 -50 12 -38 20 -18 17 43 -2 35 -7
56 -12 48 -5 -8 -19 -10 -41 -6 -88 18 -164 17 -204 -2z"/>
<path d="M1324 654 c13 -13 16 -42 16 -157 0 -78 -4 -147 -8 -153 -4 -7 -16
-14 -27 -17 -11 -2 35 -5 102 -6 171 -1 223 21 223 96 0 38 -9 50 -55 72 l-39
19 32 16 c44 23 57 50 41 87 -19 48 -53 59 -184 59 -106 0 -115 -1 -101 -16z
m160 -8 c78 -32 44 -136 -45 -136 -17 0 -19 8 -19 75 0 83 3 86 64 61z m34
-183 c41 -44 23 -103 -37 -124 -48 -17 -61 0 -61 81 0 36 3 69 6 73 13 12 70
-6 92 -30z"/>
</g>
</svg>
